<svg width="180" height="180" viewBox="0 0 120 120" fill="none" xmlns="http://www.w3.org/2000/svg"><defs><linearGradient id="primaryGradient" x1="0%" y1="0%" x2="100%" y2="100%"><stop offset="0%" stop-color="#4FACFE"></stop><stop offset="100%" stop-color="#00F2FE"></stop></linearGradient><linearGradient id="secondaryGradient" x1="0%" y1="0%" x2="100%" y2="100%"><stop offset="0%" stop-color="#5EFCE8"></stop><stop offset="100%" stop-color="#736EFE"></stop></linearGradient><linearGradient id="accentGradient" x1="0%" y1="0%" x2="100%" y2="100%"><stop offset="0%" stop-color="#FF9A9E"></stop><stop offset="100%" stop-color="#FECFEF"></stop></linearGradient><filter id="glow" x="-20%" y="-20%" width="140%" height="140%"><feGaussianBlur stdDeviation="2" result="blur"></feGaussianBlur><feComposite in="SourceGraphic" in2="blur" operator="over"></feComposite></filter></defs><path d="M60 15 L95 35 L95 85 L60 105 L25 85 L25 35 Z" fill="#1E293B" stroke="url(#primaryGradient)" stroke-width="1.5"></path><path d="M42 40 C42 36 46 32 50 32 C54 32 58 36 58 40 C58 44 54 48 50 48 C46 48 42 52 42 56 C42 60 46 64 50 64 C54 64 58 60 58 56" stroke="url(#primaryGradient)" stroke-width="3.5" stroke-linecap="round" fill="none" filter="url(#glow)"></path><path d="M78 40 C78 36 74 32 70 32 C66 32 62 36 62 40 L62 56 C62 60 66 64 70 64 C74 64 78 60 78 56 L78 50 L70 50" stroke="url(#secondaryGradient)" stroke-width="3.5" stroke-linecap="round" fill="none" filter="url(#glow)"></path><g opacity="0.9"><path d="M35 75 L30 80 L35 85" stroke="url(#accentGradient)" stroke-width="2" stroke-linecap="round" stroke-linejoin="round" fill="none"></path><path d="M85 75 L90 80 L85 85" stroke="url(#accentGradient)" stroke-width="2" stroke-linecap="round" stroke-linejoin="round" fill="none"></path><circle cx="45" cy="80" r="1.5" fill="#4FACFE"></circle><circle cx="60" cy="80" r="1.5" fill="#00F2FE"></circle><circle cx="75" cy="80" r="1.5" fill="#736EFE"></circle></g><path d="M30 25 L40 25 M90 25 L80 25 M30 95 L40 95 M90 95 L80 95" stroke="url(#primaryGradient)" stroke-width="1" stroke-linecap="round" opacity="0.6"></path></svg>