<svg width="120" height="120" viewBox="0 0 120 120" class="drop-shadow-lg"><circle cx="60" cy="60" r="55" fill="url(#gradient)" class="animate-pulse"></circle><circle cx="30" cy="35" r="6" fill="white" opacity="0.9"></circle><circle cx="30" cy="60" r="6" fill="white" opacity="0.9"></circle><circle cx="30" cy="85" r="6" fill="white" opacity="0.9"></circle><circle cx="60" cy="25" r="6" fill="white" opacity="0.9"></circle><circle cx="60" cy="50" r="8" fill="white"></circle><circle cx="60" cy="75" r="6" fill="white" opacity="0.9"></circle><circle cx="60" cy="95" r="6" fill="white" opacity="0.9"></circle><circle cx="90" cy="45" r="6" fill="white" opacity="0.9"></circle><circle cx="90" cy="75" r="6" fill="white" opacity="0.9"></circle><g stroke="white" stroke-width="2" opacity="0.6"><line x1="36" y1="35" x2="54" y2="25"></line><line x1="36" y1="35" x2="54" y2="50"></line><line x1="36" y1="60" x2="54" y2="50"></line><line x1="36" y1="60" x2="54" y2="75"></line><line x1="36" y1="85" x2="54" y2="75"></line><line x1="36" y1="85" x2="54" y2="95"></line><line x1="66" y1="25" x2="84" y2="45"></line><line x1="66" y1="50" x2="84" y2="45"></line><line x1="66" y1="50" x2="84" y2="75"></line><line x1="66" y1="75" x2="84" y2="75"></line><line x1="66" y1="95" x2="84" y2="75"></line></g><defs><linearGradient id="gradient" x1="0%" y1="0%" x2="100%" y2="100%"><stop offset="0%" stop-color="#3b82f6"></stop><stop offset="50%" stop-color="#8b5cf6"></stop><stop offset="100%" stop-color="#06b6d4"></stop></linearGradient></defs></svg>