<svg width="200" height="200" viewBox="0 0 120 120" fill="none" xmlns="http://www.w3.org/2000/svg" class="w-full h-full"><circle cx="60" cy="60" r="60" fill="#1F2937"></circle><path d="M30 30L45 20M45 20L60 30M60 30L75 20M75 20L90 30M30 30L20 45M30 30L40 45M60 30L50 45M60 30L70 45M90 30L80 45M90 30L100 45M20 45L30 60M40 45L30 60M40 45L50 60M50 45L40 60M50 45L60 60M70 45L60 60M70 45L80 60M80 45L70 60M80 45L90 60M100 45L90 60M30 60L20 75M30 60L40 75M50 60L40 75M50 60L60 75M70 60L60 75M70 60L80 75M90 60L80 75M90 60L100 75M20 75L30 90M40 75L30 90M40 75L50 90M60 75L50 90M60 75L70 90M80 75L70 90M80 75L90 90M100 75L90 90" stroke="#374151" stroke-width="0.5" stroke-opacity="0.6"></path><path d="M40 45L30 60L40 75" stroke="#10B981" stroke-width="4" stroke-linecap="round" stroke-linejoin="round"></path><path d="M80 45L90 60L80 75" stroke="#10B981" stroke-width="4" stroke-linecap="round" stroke-linejoin="round"></path><circle cx="60" cy="60" r="15" fill="#10B981" fill-opacity="0.2" stroke="#10B981" stroke-width="2"></circle><path d="M60 50L63 57H70L65 62L67 69L60 65L53 69L55 62L50 57H57L60 50Z" fill="#10B981" stroke="#10B981" stroke-width="1"></path><text x="52" y="40" fill="#10B981" font-size="6" font-family="monospace">10</text><text x="67" y="40" fill="#10B981" font-size="6" font-family="monospace">01</text><text x="52" y="85" fill="#10B981" font-size="6" font-family="monospace">01</text><text x="67" y="85" fill="#10B981" font-size="6" font-family="monospace">10</text><circle cx="60" cy="60" r="25" stroke="#10B981" stroke-width="1" stroke-opacity="0.5"></circle><circle cx="60" cy="60" r="35" stroke="#10B981" stroke-width="0.5" stroke-opacity="0.3"></circle></svg>